<?xml version="1.0" encoding="UTF-8" standalone="no"?>
<!DOCTYPE svg PUBLIC "-//W3C//DTD SVG 1.1//EN"
 "http://www.w3.org/Graphics/SVG/1.1/DTD/svg11.dtd">
<!-- Generated by graphviz version 2.40.1 (20161225.0304)
 -->
<!-- Title: snakemake_dag Pages: 1 -->
<svg width="232pt" height="352pt"
 viewBox="0.00 0.00 232.00 352.00" xmlns="http://www.w3.org/2000/svg" xmlns:xlink="http://www.w3.org/1999/xlink">
<g id="graph0" class="graph" transform="scale(1 1) rotate(0) translate(4 348)">
<title>snakemake_dag</title>
<polygon fill="#ffffff" stroke="transparent" points="-4,4 -4,-348 228,-348 228,4 -4,4"/>
<!-- 0 -->
<g id="node1" class="node">
<title>0</title>
<path fill="none" stroke="#59d856" stroke-width="2" d="M125,-36C125,-36 95,-36 95,-36 89,-36 83,-30 83,-24 83,-24 83,-12 83,-12 83,-6 89,0 95,0 95,0 125,0 125,0 131,0 137,-6 137,-12 137,-12 137,-24 137,-24 137,-30 131,-36 125,-36"/>
<text text-anchor="middle" x="110" y="-15" font-family="sans" font-size="10.00" fill="#000000">all</text>
</g>
<!-- 1 -->
<g id="node2" class="node">
<title>1</title>
<path fill="none" stroke="#d6d856" stroke-width="2" d="M75.5,-108C75.5,-108 34.5,-108 34.5,-108 28.5,-108 22.5,-102 22.5,-96 22.5,-96 22.5,-84 22.5,-84 22.5,-78 28.5,-72 34.5,-72 34.5,-72 75.5,-72 75.5,-72 81.5,-72 87.5,-78 87.5,-84 87.5,-84 87.5,-96 87.5,-96 87.5,-102 81.5,-108 75.5,-108"/>
<text text-anchor="middle" x="55" y="-87" font-family="sans" font-size="10.00" fill="#000000">bam2bed</text>
</g>
<!-- 1&#45;&gt;0 -->
<g id="edge1" class="edge">
<title>1&#45;&gt;0</title>
<path fill="none" stroke="#c0c0c0" stroke-width="2" d="M68.8788,-71.8314C75.2136,-63.5386 82.8384,-53.557 89.7926,-44.4533"/>
<polygon fill="#c0c0c0" stroke="#c0c0c0" stroke-width="2" points="92.6452,-46.4847 95.9343,-36.4133 87.0825,-42.2353 92.6452,-46.4847"/>
</g>
<!-- 2 -->
<g id="node3" class="node">
<title>2</title>
<path fill="none" stroke="#d89556" stroke-width="2" d="M139,-180C139,-180 81,-180 81,-180 75,-180 69,-174 69,-168 69,-168 69,-156 69,-156 69,-150 75,-144 81,-144 81,-144 139,-144 139,-144 145,-144 151,-150 151,-156 151,-156 151,-168 151,-168 151,-174 145,-180 139,-180"/>
<text text-anchor="middle" x="110" y="-165" font-family="sans" font-size="10.00" fill="#000000">sam_to_bam</text>
<text text-anchor="middle" x="110" y="-153" font-family="sans" font-size="10.00" fill="#000000">mode: single</text>
</g>
<!-- 2&#45;&gt;1 -->
<g id="edge3" class="edge">
<title>2&#45;&gt;1</title>
<path fill="none" stroke="#c0c0c0" stroke-width="2" d="M96.1212,-143.8314C89.7864,-135.5386 82.1616,-125.557 75.2074,-116.4533"/>
<polygon fill="#c0c0c0" stroke="#c0c0c0" stroke-width="2" points="77.9175,-114.2353 69.0657,-108.4133 72.3548,-118.4847 77.9175,-114.2353"/>
</g>
<!-- 5 -->
<g id="node6" class="node">
<title>5</title>
<path fill="none" stroke="#56d89a" stroke-width="2" d="M212,-108C212,-108 118,-108 118,-108 112,-108 106,-102 106,-96 106,-96 106,-84 106,-84 106,-78 112,-72 118,-72 118,-72 212,-72 212,-72 218,-72 224,-78 224,-84 224,-84 224,-96 224,-96 224,-102 218,-108 212,-108"/>
<text text-anchor="middle" x="165" y="-87" font-family="sans" font-size="10.00" fill="#000000">count_unique_reads</text>
</g>
<!-- 2&#45;&gt;5 -->
<g id="edge6" class="edge">
<title>2&#45;&gt;5</title>
<path fill="none" stroke="#c0c0c0" stroke-width="2" d="M123.8788,-143.8314C130.2136,-135.5386 137.8384,-125.557 144.7926,-116.4533"/>
<polygon fill="#c0c0c0" stroke="#c0c0c0" stroke-width="2" points="147.6452,-118.4847 150.9343,-108.4133 142.0825,-114.2353 147.6452,-118.4847"/>
</g>
<!-- 3 -->
<g id="node4" class="node">
<title>3</title>
<path fill="none" stroke="#569ad8" stroke-width="2" d="M143.5,-252C143.5,-252 76.5,-252 76.5,-252 70.5,-252 64.5,-246 64.5,-240 64.5,-240 64.5,-228 64.5,-228 64.5,-222 70.5,-216 76.5,-216 76.5,-216 143.5,-216 143.5,-216 149.5,-216 155.5,-222 155.5,-228 155.5,-228 155.5,-240 155.5,-240 155.5,-246 149.5,-252 143.5,-252"/>
<text text-anchor="middle" x="110" y="-237" font-family="sans" font-size="10.00" fill="#000000">align</text>
<text text-anchor="middle" x="110" y="-225" font-family="sans" font-size="10.00" fill="#000000">genome: hg38</text>
</g>
<!-- 3&#45;&gt;2 -->
<g id="edge4" class="edge">
<title>3&#45;&gt;2</title>
<path fill="none" stroke="#c0c0c0" stroke-width="2" d="M110,-215.8314C110,-208.131 110,-198.9743 110,-190.4166"/>
<polygon fill="#c0c0c0" stroke="#c0c0c0" stroke-width="2" points="113.5001,-190.4132 110,-180.4133 106.5001,-190.4133 113.5001,-190.4132"/>
</g>
<!-- 4 -->
<g id="node5" class="node">
<title>4</title>
<path fill="none" stroke="#d85656" stroke-width="2" d="M208,-344C208,-344 12,-344 12,-344 6,-344 0,-338 0,-332 0,-332 0,-300 0,-300 0,-294 6,-288 12,-288 12,-288 208,-288 208,-288 214,-288 220,-294 220,-300 220,-300 220,-332 220,-332 220,-338 214,-344 208,-344"/>
<text text-anchor="middle" x="110" y="-331" font-family="sans" font-size="10.00" fill="#000000">trim</text>
<text text-anchor="middle" x="110" y="-319" font-family="sans" font-size="10.00" fill="#000000">length: 100</text>
<text text-anchor="middle" x="110" y="-307" font-family="sans" font-size="10.00" fill="#000000">replicate: 1</text>
<text text-anchor="middle" x="110" y="-295" font-family="sans" font-size="10.00" fill="#000000">sample: H3K27me3_iPSC_SRA60_subset</text>
</g>
<!-- 4&#45;&gt;3 -->
<g id="edge5" class="edge">
<title>4&#45;&gt;3</title>
<path fill="none" stroke="#c0c0c0" stroke-width="2" d="M110,-287.7803C110,-279.6628 110,-270.8027 110,-262.659"/>
<polygon fill="#c0c0c0" stroke="#c0c0c0" stroke-width="2" points="113.5001,-262.4886 110,-252.4887 106.5001,-262.4887 113.5001,-262.4886"/>
</g>
<!-- 5&#45;&gt;0 -->
<g id="edge2" class="edge">
<title>5&#45;&gt;0</title>
<path fill="none" stroke="#c0c0c0" stroke-width="2" d="M151.1212,-71.8314C144.7864,-63.5386 137.1616,-53.557 130.2074,-44.4533"/>
<polygon fill="#c0c0c0" stroke="#c0c0c0" stroke-width="2" points="132.9175,-42.2353 124.0657,-36.4133 127.3548,-46.4847 132.9175,-42.2353"/>
</g>
</g>
</svg>
