<?xml version="1.0" encoding="UTF-8" standalone="no"?>
<!DOCTYPE svg PUBLIC "-//W3C//DTD SVG 1.1//EN"
 "http://www.w3.org/Graphics/SVG/1.1/DTD/svg11.dtd">
<!-- Generated by graphviz version 2.40.1 (20161225.0304)
 -->
<!-- Title: snakemake_dag Pages: 1 -->
<svg width="251pt" height="424pt"
 viewBox="0.00 0.00 251.00 424.00" xmlns="http://www.w3.org/2000/svg" xmlns:xlink="http://www.w3.org/1999/xlink">
<g id="graph0" class="graph" transform="scale(1 1) rotate(0) translate(4 420)">
<title>snakemake_dag</title>
<polygon fill="#ffffff" stroke="transparent" points="-4,4 -4,-420 247,-420 247,4 -4,4"/>
<!-- 0 -->
<g id="node1" class="node">
<title>0</title>
<path fill="none" stroke="#d89556" stroke-width="2" d="M95,-36C95,-36 65,-36 65,-36 59,-36 53,-30 53,-24 53,-24 53,-12 53,-12 53,-6 59,0 65,0 65,0 95,0 95,0 101,0 107,-6 107,-12 107,-12 107,-24 107,-24 107,-30 101,-36 95,-36"/>
<text text-anchor="middle" x="80" y="-15" font-family="sans" font-size="10.00" fill="#000000">all</text>
</g>
<!-- 1 -->
<g id="node2" class="node">
<title>1</title>
<path fill="none" stroke="#d85656" stroke-width="2" d="M100.5,-180C100.5,-180 59.5,-180 59.5,-180 53.5,-180 47.5,-174 47.5,-168 47.5,-168 47.5,-156 47.5,-156 47.5,-150 53.5,-144 59.5,-144 59.5,-144 100.5,-144 100.5,-144 106.5,-144 112.5,-150 112.5,-156 112.5,-156 112.5,-168 112.5,-168 112.5,-174 106.5,-180 100.5,-180"/>
<text text-anchor="middle" x="80" y="-159" font-family="sans" font-size="10.00" fill="#000000">bam2bed</text>
</g>
<!-- 1&#45;&gt;0 -->
<g id="edge1" class="edge">
<title>1&#45;&gt;0</title>
<path fill="none" stroke="#c0c0c0" stroke-width="2" d="M64.0095,-143.9169C56.3462,-134.0371 47.9834,-121.1563 44,-108 39.3635,-92.6865 39.3635,-87.3135 44,-72 46.9564,-62.2355 52.3252,-52.6229 58.03,-44.2762"/>
<polygon fill="#c0c0c0" stroke="#c0c0c0" stroke-width="2" points="60.9414,-46.2239 64.0095,-36.0831 55.2871,-42.0973 60.9414,-46.2239"/>
</g>
<!-- 6 -->
<g id="node7" class="node">
<title>6</title>
<path fill="none" stroke="#56d89a" stroke-width="2" d="M95,-108C95,-108 65,-108 65,-108 59,-108 53,-102 53,-96 53,-96 53,-84 53,-84 53,-78 59,-72 65,-72 65,-72 95,-72 95,-72 101,-72 107,-78 107,-84 107,-84 107,-96 107,-96 107,-102 101,-108 95,-108"/>
<text text-anchor="middle" x="80" y="-87" font-family="sans" font-size="10.00" fill="#000000">liftover</text>
</g>
<!-- 1&#45;&gt;6 -->
<g id="edge8" class="edge">
<title>1&#45;&gt;6</title>
<path fill="none" stroke="#c0c0c0" stroke-width="2" d="M80,-143.8314C80,-136.131 80,-126.9743 80,-118.4166"/>
<polygon fill="#c0c0c0" stroke="#c0c0c0" stroke-width="2" points="83.5001,-118.4132 80,-108.4133 76.5001,-118.4133 83.5001,-118.4132"/>
</g>
<!-- 2 -->
<g id="node3" class="node">
<title>2</title>
<path fill="none" stroke="#97d856" stroke-width="2" d="M139,-252C139,-252 81,-252 81,-252 75,-252 69,-246 69,-240 69,-240 69,-228 69,-228 69,-222 75,-216 81,-216 81,-216 139,-216 139,-216 145,-216 151,-222 151,-228 151,-228 151,-240 151,-240 151,-246 145,-252 139,-252"/>
<text text-anchor="middle" x="110" y="-237" font-family="sans" font-size="10.00" fill="#000000">sam_to_bam</text>
<text text-anchor="middle" x="110" y="-225" font-family="sans" font-size="10.00" fill="#000000">mode: single</text>
</g>
<!-- 2&#45;&gt;1 -->
<g id="edge4" class="edge">
<title>2&#45;&gt;1</title>
<path fill="none" stroke="#c0c0c0" stroke-width="2" d="M102.4297,-215.8314C99.1507,-207.9617 95.238,-198.5712 91.6055,-189.8533"/>
<polygon fill="#c0c0c0" stroke="#c0c0c0" stroke-width="2" points="94.7492,-188.2979 87.6722,-180.4133 88.2876,-190.9902 94.7492,-188.2979"/>
</g>
<!-- 5 -->
<g id="node6" class="node">
<title>5</title>
<path fill="none" stroke="#d6d856" stroke-width="2" d="M231,-108C231,-108 137,-108 137,-108 131,-108 125,-102 125,-96 125,-96 125,-84 125,-84 125,-78 131,-72 137,-72 137,-72 231,-72 231,-72 237,-72 243,-78 243,-84 243,-84 243,-96 243,-96 243,-102 237,-108 231,-108"/>
<text text-anchor="middle" x="184" y="-87" font-family="sans" font-size="10.00" fill="#000000">count_unique_reads</text>
</g>
<!-- 2&#45;&gt;5 -->
<g id="edge7" class="edge">
<title>2&#45;&gt;5</title>
<path fill="none" stroke="#c0c0c0" stroke-width="2" d="M119.3722,-215.7623C132.1607,-190.8764 155.18,-146.0822 170.0138,-117.2165"/>
<polygon fill="#c0c0c0" stroke="#c0c0c0" stroke-width="2" points="173.2462,-118.5837 174.7039,-108.0896 167.0202,-115.3842 173.2462,-118.5837"/>
</g>
<!-- 3 -->
<g id="node4" class="node">
<title>3</title>
<path fill="none" stroke="#56d8d8" stroke-width="2" d="M143.5,-324C143.5,-324 76.5,-324 76.5,-324 70.5,-324 64.5,-318 64.5,-312 64.5,-312 64.5,-300 64.5,-300 64.5,-294 70.5,-288 76.5,-288 76.5,-288 143.5,-288 143.5,-288 149.5,-288 155.5,-294 155.5,-300 155.5,-300 155.5,-312 155.5,-312 155.5,-318 149.5,-324 143.5,-324"/>
<text text-anchor="middle" x="110" y="-309" font-family="sans" font-size="10.00" fill="#000000">align</text>
<text text-anchor="middle" x="110" y="-297" font-family="sans" font-size="10.00" fill="#000000">genome: hg19</text>
</g>
<!-- 3&#45;&gt;2 -->
<g id="edge5" class="edge">
<title>3&#45;&gt;2</title>
<path fill="none" stroke="#c0c0c0" stroke-width="2" d="M110,-287.8314C110,-280.131 110,-270.9743 110,-262.4166"/>
<polygon fill="#c0c0c0" stroke="#c0c0c0" stroke-width="2" points="113.5001,-262.4132 110,-252.4133 106.5001,-262.4133 113.5001,-262.4132"/>
</g>
<!-- 4 -->
<g id="node5" class="node">
<title>4</title>
<path fill="none" stroke="#59d856" stroke-width="2" d="M208,-416C208,-416 12,-416 12,-416 6,-416 0,-410 0,-404 0,-404 0,-372 0,-372 0,-366 6,-360 12,-360 12,-360 208,-360 208,-360 214,-360 220,-366 220,-372 220,-372 220,-404 220,-404 220,-410 214,-416 208,-416"/>
<text text-anchor="middle" x="110" y="-403" font-family="sans" font-size="10.00" fill="#000000">trim</text>
<text text-anchor="middle" x="110" y="-391" font-family="sans" font-size="10.00" fill="#000000">length: 50</text>
<text text-anchor="middle" x="110" y="-379" font-family="sans" font-size="10.00" fill="#000000">replicate: 1</text>
<text text-anchor="middle" x="110" y="-367" font-family="sans" font-size="10.00" fill="#000000">sample: H3K27me3_iPSC_SRA60_subset</text>
</g>
<!-- 4&#45;&gt;3 -->
<g id="edge6" class="edge">
<title>4&#45;&gt;3</title>
<path fill="none" stroke="#c0c0c0" stroke-width="2" d="M110,-359.7803C110,-351.6628 110,-342.8027 110,-334.659"/>
<polygon fill="#c0c0c0" stroke="#c0c0c0" stroke-width="2" points="113.5001,-334.4886 110,-324.4887 106.5001,-334.4887 113.5001,-334.4886"/>
</g>
<!-- 5&#45;&gt;0 -->
<g id="edge2" class="edge">
<title>5&#45;&gt;0</title>
<path fill="none" stroke="#c0c0c0" stroke-width="2" d="M157.7564,-71.8314C144.7005,-62.7927 128.7465,-51.7476 114.6953,-42.0198"/>
<polygon fill="#c0c0c0" stroke="#c0c0c0" stroke-width="2" points="116.4494,-38.9773 106.2352,-36.1628 112.4649,-44.7326 116.4494,-38.9773"/>
</g>
<!-- 6&#45;&gt;0 -->
<g id="edge3" class="edge">
<title>6&#45;&gt;0</title>
<path fill="none" stroke="#c0c0c0" stroke-width="2" d="M80,-71.8314C80,-64.131 80,-54.9743 80,-46.4166"/>
<polygon fill="#c0c0c0" stroke="#c0c0c0" stroke-width="2" points="83.5001,-46.4132 80,-36.4133 76.5001,-46.4133 83.5001,-46.4132"/>
</g>
</g>
</svg>
