<?xml version="1.0" encoding="UTF-8" standalone="no"?>
<!DOCTYPE svg PUBLIC "-//W3C//DTD SVG 1.1//EN"
 "http://www.w3.org/Graphics/SVG/1.1/DTD/svg11.dtd">
<!-- Generated by graphviz version 2.40.1 (20161225.0304)
 -->
<!-- Title: snakemake_dag Pages: 1 -->
<svg width="466pt" height="352pt"
 viewBox="0.00 0.00 466.00 352.00" xmlns="http://www.w3.org/2000/svg" xmlns:xlink="http://www.w3.org/1999/xlink">
<g id="graph0" class="graph" transform="scale(1 1) rotate(0) translate(4 348)">
<title>snakemake_dag</title>
<polygon fill="#ffffff" stroke="transparent" points="-4,4 -4,-348 462,-348 462,4 -4,4"/>
<!-- 0 -->
<g id="node1" class="node">
<title>0</title>
<path fill="none" stroke="#569ad8" stroke-width="2" d="M244,-36C244,-36 214,-36 214,-36 208,-36 202,-30 202,-24 202,-24 202,-12 202,-12 202,-6 208,0 214,0 214,0 244,0 244,0 250,0 256,-6 256,-12 256,-12 256,-24 256,-24 256,-30 250,-36 244,-36"/>
<text text-anchor="middle" x="229" y="-15" font-family="sans" font-size="10.00" fill="#000000">all</text>
</g>
<!-- 1 -->
<g id="node2" class="node">
<title>1</title>
<path fill="none" stroke="#56d89a" stroke-width="2" d="M194.5,-108C194.5,-108 153.5,-108 153.5,-108 147.5,-108 141.5,-102 141.5,-96 141.5,-96 141.5,-84 141.5,-84 141.5,-78 147.5,-72 153.5,-72 153.5,-72 194.5,-72 194.5,-72 200.5,-72 206.5,-78 206.5,-84 206.5,-84 206.5,-96 206.5,-96 206.5,-102 200.5,-108 194.5,-108"/>
<text text-anchor="middle" x="174" y="-87" font-family="sans" font-size="10.00" fill="#000000">bam2bed</text>
</g>
<!-- 1&#45;&gt;0 -->
<g id="edge1" class="edge">
<title>1&#45;&gt;0</title>
<path fill="none" stroke="#c0c0c0" stroke-width="2" d="M187.8788,-71.8314C194.2136,-63.5386 201.8384,-53.557 208.7926,-44.4533"/>
<polygon fill="#c0c0c0" stroke="#c0c0c0" stroke-width="2" points="211.6452,-46.4847 214.9343,-36.4133 206.0825,-42.2353 211.6452,-46.4847"/>
</g>
<!-- 2 -->
<g id="node3" class="node">
<title>2</title>
<path fill="none" stroke="#d89556" stroke-width="2" d="M259,-180C259,-180 199,-180 199,-180 193,-180 187,-174 187,-168 187,-168 187,-156 187,-156 187,-150 193,-144 199,-144 199,-144 259,-144 259,-144 265,-144 271,-150 271,-156 271,-156 271,-168 271,-168 271,-174 265,-180 259,-180"/>
<text text-anchor="middle" x="229" y="-165" font-family="sans" font-size="10.00" fill="#000000">sam_to_bam</text>
<text text-anchor="middle" x="229" y="-153" font-family="sans" font-size="10.00" fill="#000000">mode: paired</text>
</g>
<!-- 2&#45;&gt;1 -->
<g id="edge3" class="edge">
<title>2&#45;&gt;1</title>
<path fill="none" stroke="#c0c0c0" stroke-width="2" d="M215.1212,-143.8314C208.7864,-135.5386 201.1616,-125.557 194.2074,-116.4533"/>
<polygon fill="#c0c0c0" stroke="#c0c0c0" stroke-width="2" points="196.9175,-114.2353 188.0657,-108.4133 191.3548,-118.4847 196.9175,-114.2353"/>
</g>
<!-- 6 -->
<g id="node7" class="node">
<title>6</title>
<path fill="none" stroke="#d6d856" stroke-width="2" d="M331,-108C331,-108 237,-108 237,-108 231,-108 225,-102 225,-96 225,-96 225,-84 225,-84 225,-78 231,-72 237,-72 237,-72 331,-72 331,-72 337,-72 343,-78 343,-84 343,-84 343,-96 343,-96 343,-102 337,-108 331,-108"/>
<text text-anchor="middle" x="284" y="-87" font-family="sans" font-size="10.00" fill="#000000">count_unique_reads</text>
</g>
<!-- 2&#45;&gt;6 -->
<g id="edge7" class="edge">
<title>2&#45;&gt;6</title>
<path fill="none" stroke="#c0c0c0" stroke-width="2" d="M242.8788,-143.8314C249.2136,-135.5386 256.8384,-125.557 263.7926,-116.4533"/>
<polygon fill="#c0c0c0" stroke="#c0c0c0" stroke-width="2" points="266.6452,-118.4847 269.9343,-108.4133 261.0825,-114.2353 266.6452,-118.4847"/>
</g>
<!-- 3 -->
<g id="node4" class="node">
<title>3</title>
<path fill="none" stroke="#59d856" stroke-width="2" d="M262.5,-252C262.5,-252 195.5,-252 195.5,-252 189.5,-252 183.5,-246 183.5,-240 183.5,-240 183.5,-228 183.5,-228 183.5,-222 189.5,-216 195.5,-216 195.5,-216 262.5,-216 262.5,-216 268.5,-216 274.5,-222 274.5,-228 274.5,-228 274.5,-240 274.5,-240 274.5,-246 268.5,-252 262.5,-252"/>
<text text-anchor="middle" x="229" y="-237" font-family="sans" font-size="10.00" fill="#000000">align_paired</text>
<text text-anchor="middle" x="229" y="-225" font-family="sans" font-size="10.00" fill="#000000">genome: hg38</text>
</g>
<!-- 3&#45;&gt;2 -->
<g id="edge4" class="edge">
<title>3&#45;&gt;2</title>
<path fill="none" stroke="#c0c0c0" stroke-width="2" d="M229,-215.8314C229,-208.131 229,-198.9743 229,-190.4166"/>
<polygon fill="#c0c0c0" stroke="#c0c0c0" stroke-width="2" points="232.5001,-190.4132 229,-180.4133 225.5001,-190.4133 232.5001,-190.4132"/>
</g>
<!-- 4 -->
<g id="node5" class="node">
<title>4</title>
<path fill="none" stroke="#d85656" stroke-width="2" d="M208,-344C208,-344 12,-344 12,-344 6,-344 0,-338 0,-332 0,-332 0,-300 0,-300 0,-294 6,-288 12,-288 12,-288 208,-288 208,-288 214,-288 220,-294 220,-300 220,-300 220,-332 220,-332 220,-338 214,-344 208,-344"/>
<text text-anchor="middle" x="110" y="-331" font-family="sans" font-size="10.00" fill="#000000">trim</text>
<text text-anchor="middle" x="110" y="-319" font-family="sans" font-size="10.00" fill="#000000">length: 50</text>
<text text-anchor="middle" x="110" y="-307" font-family="sans" font-size="10.00" fill="#000000">replicate: 1</text>
<text text-anchor="middle" x="110" y="-295" font-family="sans" font-size="10.00" fill="#000000">sample: H3K27me3_iPSC_SRA60_subset</text>
</g>
<!-- 4&#45;&gt;3 -->
<g id="edge5" class="edge">
<title>4&#45;&gt;3</title>
<path fill="none" stroke="#c0c0c0" stroke-width="2" d="M150.953,-287.7803C164.9613,-278.1275 180.4936,-267.4246 193.9895,-258.1249"/>
<polygon fill="#c0c0c0" stroke="#c0c0c0" stroke-width="2" points="196.2793,-260.7976 202.5277,-252.2414 192.3074,-255.0335 196.2793,-260.7976"/>
</g>
<!-- 5 -->
<g id="node6" class="node">
<title>5</title>
<path fill="none" stroke="#d85656" stroke-width="2" d="M446,-344C446,-344 250,-344 250,-344 244,-344 238,-338 238,-332 238,-332 238,-300 238,-300 238,-294 244,-288 250,-288 250,-288 446,-288 446,-288 452,-288 458,-294 458,-300 458,-300 458,-332 458,-332 458,-338 452,-344 446,-344"/>
<text text-anchor="middle" x="348" y="-331" font-family="sans" font-size="10.00" fill="#000000">trim</text>
<text text-anchor="middle" x="348" y="-319" font-family="sans" font-size="10.00" fill="#000000">length: 50</text>
<text text-anchor="middle" x="348" y="-307" font-family="sans" font-size="10.00" fill="#000000">replicate: 2</text>
<text text-anchor="middle" x="348" y="-295" font-family="sans" font-size="10.00" fill="#000000">sample: H3K27me3_iPSC_SRA60_subset</text>
</g>
<!-- 5&#45;&gt;3 -->
<g id="edge6" class="edge">
<title>5&#45;&gt;3</title>
<path fill="none" stroke="#c0c0c0" stroke-width="2" d="M307.047,-287.7803C293.0387,-278.1275 277.5064,-267.4246 264.0105,-258.1249"/>
<polygon fill="#c0c0c0" stroke="#c0c0c0" stroke-width="2" points="265.6926,-255.0335 255.4723,-252.2414 261.7207,-260.7976 265.6926,-255.0335"/>
</g>
<!-- 6&#45;&gt;0 -->
<g id="edge2" class="edge">
<title>6&#45;&gt;0</title>
<path fill="none" stroke="#c0c0c0" stroke-width="2" d="M270.1212,-71.8314C263.7864,-63.5386 256.1616,-53.557 249.2074,-44.4533"/>
<polygon fill="#c0c0c0" stroke="#c0c0c0" stroke-width="2" points="251.9175,-42.2353 243.0657,-36.4133 246.3548,-46.4847 251.9175,-42.2353"/>
</g>
</g>
</svg>
